<svg xmlns="http://www.w3.org/2000/svg" viewBox="0 0 64 64">
  <defs>
    <linearGradient id="grad" x1="0%" y1="0%" x2="100%" y2="100%">
      <stop offset="0%" stop-color="#8b1135" />
      <stop offset="50%" stop-color="#a9154b" />
      <stop offset="100%" stop-color="#d61b5f" />
    </linearGradient>
  </defs>
  <rect width="64" height="64" rx="14" fill="url(#grad)" />
  <path
    fill="#ffffff"
    d="M18 45c-2.761 0-5-2.239-5-5V24c0-2.761 2.239-5 5-5s5 2.239 5 5v16c0 2.761-2.239 5-5 5zm0-4c.552 0 1-.448 1-1V24c0-.552-.448-1-1-1s-1 .448-1 1v16c0 .552.448 1 1 1zm29.53 3.47-1.41-1.41c-1.306-1.306-3.421-1.306-4.727 0L38 45.47l-3.394-3.394c-1.306-1.306-3.421-1.306-4.727 0l-1.41 1.41c-.63.63-1.707.184-1.707-.707V22.5c0-2.485 2.015-4.5 4.5-4.5h10c2.485 0 4.5 2.015 4.5 4.5v21.263c0 .891-1.077 1.337-1.707.707zM41.5 22h-10c-.276 0-.5.224-.5.5v14.435l1.98-1.98a3.5 3.5 0 0 1 4.95 0l1.57 1.57 1.57-1.57a3.5 3.5 0 0 1 4.95 0l.48.48V22.5c0-.276-.224-.5-.5-.5z"
  />
</svg>
